<svg width="234" height="72" viewBox="0 0 234 72" xmlns="http://www.w3.org/2000/svg"><g fill="none" fill-rule="evenodd"><path d="M61.75 29.267c-2.377-4.118-5.443-7.674-9.552-10.066-3.988-2.32-8.539-2.897-13.475-2.907-4.937-.008-9.854-.08-13.85 2.226-4.119 2.376-7.354 6.25-9.745 10.359-2.32 3.988-2.969 8.665-2.978 13.602a.957.957 0 00.827.95l2.383.327h3.136c.044.003.087.011.132.01l.45-.01a75.1 75.1 0 00.69-.017c1.182-.06 6.563-.522 7.9-.739 1.505-.244 6.884-.702 9.844-.594 1.868.069 5.97.657 7.454.456 1.483-.2 2.282-.128 3.676-.072.965.04 1.803.795 2.222 1.723.418.93 2.002 4.636 1.967 7.531-.03 2.53.384 8.059-1.677 11.67-.657 1.15.63 2.176 1.263 1.878 5.073-2.394 6.788-5.163 9.176-9.17 2.446-4.101 4.423-8.72 4.432-13.845.01-4.936-1.97-9.316-4.276-13.312" fill="#FF4233"/><path d="M36.514 11.393a1.34 1.34 0 001.23 1.565c3.046.2 10.639.468 13.58-1.519 3.72-2.512 8.181-9.1 8.037-9.795C59.144.592 44.468-1.58 40.153 4.086c-2.584 3.392-3.4 5.867-3.64 7.307" fill="#00AD8C"/><path d="M23.49 71.155c-6.53-.01-12.441-3.002-16.713-6.905-4.254-3.888-6.35-9.26-6.43-15.121-.01-.786.391-2.058 2.43-1.992 7.713.254 5.329.276 13.047.183 7.718-.093 7.7-1.365 15.42-1.457 7.718-.093 4.982.473 12.7.38.328-.003 1.89-.251 2.683.566.692.713.84 1.502.852 2.45.081 5.96-2.128 11.554-6.453 15.49-4.318 3.931-10.908 6.418-17.537 6.406" fill="#F9BB1E"/><path d="M207.975 51.98c-.194-.15-.395-.307-.55-.524-.174-.245-.406-.626-.406-1.115 0-4.448-.106-8.537-.148-12.985-.04-4.308.493-7.649-.048-11.919a1.918 1.918 0 00-.405-.954c-.232-.297-.542-.435-.853-.379-1.728.319-3.314 1.157-4.827 2.017-1.08.614-3.469 1.41-3.66 2.791-.073.537.102 1.066.449 1.345.114.092.219.196.324.3.124.122.241.238.374.334.559.407.828.945.822 1.644-.03 3.736-.076 6.281-.127 10.017-.024 1.836-.05 3.313-.074 5.148-.021 1.565.24 3.164-.96 4.365-.21.204-.403.487-.542.799-.174.388-.165.86.023 1.261.163.345.441.595.764.685.37.103.8.152 1.24.139.295-.008.591-.01.886-.01.508 0 1.014.008 1.509.017.895.016 1.82.033 2.73-.005l.48-.018c.582-.022 1.182-.045 1.768-.103l.131-.012c.526-.05 1.07-.1 1.44-.475.289-.291.447-.666.445-1.052a1.438 1.438 0 00-.438-1.018c-.108-.106-.23-.2-.347-.292M101.623 47.883c-.485-.084-.974.205-1.332.579 0 0-.756.801-1.681 1.182-.486.2-.983.213-1.415.007-1.188-.568-1.048-2.265-1.117-3.374-.093-1.507-.066-3.02-.04-4.528.021-1.278.026-2.61.065-3.888.017-.568-.118-.817.29-.832 1.406-.054 3.104.032 3.104.032.179-.007.357-.014.535-.028.487-.041.646-.17.805-.654.158-.481.17-1.06.038-1.728-.079-.4-.496-.57-.848-.57-.813 0-1.637-.019-2.436-.037-.331-.008-.662-.015-.994-.02-.373-.008-.614-.226-.66-.598-.05-.399-.08-.797-.103-1.132a111.1 111.1 0 01-.062-1.003 70.033 70.033 0 00-.109-1.639c-.047-.567-.307-.81-.899-.84l-.223-.012c-.444-.022-1.61.022-2.06.014-.698-.012-1.024.263-1.112.95l-.01.076c-.047.377-.097.766-.118 1.149-.066 1.221-.58 1.933-1.694 2.539-.31.169-.915.364-1.258.373-.547.013-.543.025-1.198-.01a8.146 8.146 0 00-.448-.016c-.09 0-.179.003-.267.01-.587.05-.836.304-.862.876-.017.391-.017.921-.01 1.316l.001.104c.006.375.18.574.563.645.31.058 1.513.107 1.66.123.523.056.425.262.436.664l.014.45c.086 2.796.096 5.565.134 8.366.042 3.26.456 8.14 5.763 8.895 4.091.42 6.917-1.773 7.962-4.408.222-.561.478-1.035.476-1.863-.002-.522-.268-1.062-.89-1.17M151.093 52.157c-.393-.441-.8-.898-.878-1.523-.392-3.133-.186-6.747-.893-9.842-.6-2.621-1.98-5.21-4.317-6.54-2.5-1.42-5.885-1.068-8.04.836-.356.315-.985.636-1.21.217-.078-.143-.054-.318-.08-.48-.075-.459-.564-.758-1.03-.778-.464-.02-.91.171-1.337.359l-4.87 2.138c-.445.195-.906.402-1.223.77-.645.75-.148 1.88.591 2.358 1.046.676 1.172 1.55 1.133 2.706-.053 1.598-.017 3.647-.014 5.246.002 1.062.165 2.268-.044 3.322-.1.505-.296.93-.595 1.347-.437.607-.966 1.221-.571 1.996.221.436.628.685 1.114.685.313 0 .626-.002.938-.004.457-.004.913-.007 1.37-.003.322.002 1.11-.049 1.43-.037.244.01 3.097.049 4.053.044a1.17 1.17 0 001.126-.976c.11-.64-.178-.967-.533-1.578-.898-1.55-.87-3.688-.994-5.435-.146-2.075-.086-4.905.507-6.913.259-.878.638-1.758 1.328-2.36.689-.601 1.751-.85 2.54-.385.576.34.902.98 1.137 1.607.641 1.72.814 3.573.924 5.404.082 1.354.131 3.107.15 4.463.016 1.127.238 2.304-.549 3.217-.17.191-.354.394-.549.583-.43.417-.562.937-.37 1.463.206.568.64.878 1.258.898.656.021 1.313.01 2.009-.002.43-.007.868-.014 1.321-.014.445 0 .904.007 1.386.028.368-.03.804-.023 1.264-.017.61.009 1.24.018 1.886-.05.796-.082 1.298-.657 1.247-1.431-.03-.45-.225-.881-.583-1.284l-.032-.035zM165.904 46.407c-.205.669-.48 1.341-.983 1.829a1.993 1.993 0 01-.152.133 1.594 1.594 0 01-2 .01 1.99 1.99 0 01-.153-.131c-.508-.482-.79-1.151-1.002-1.818a12.564 12.564 0 01-.07-7.347c.33-1.11 1.165-2.315 2.162-2.336.996.01 1.845 1.205 2.187 2.312.735 2.375.74 4.97.01 7.348m7.294-8.845c.38-.289.935-.442 1.34-.73.54-.385.828-1.092.712-1.745a1.806 1.806 0 00-1.267-1.393c-.62-.171-1.274.005-1.898.152-.786.185-1.587.327-2.395.329-2.067.004-4.046-.906-6.119-.779-1.988.122-3.991.64-5.77 1.546l-.06.031c-.207.105-.422.214-.594.355-.706.578-1.512 1.267-2.136 2.119-.077.105-.156.21-.235.313-1.537 2.04-2.148 5.147-1.613 7.645.5 2.34 2.165 4.344 4.25 5.517 2.084 1.174 4.552 1.564 6.937 1.382.565-.043 1.2-.098 1.634.267.221.185.354.453.452.723.494 1.353.193 3.002-.857 3.987-1.049.985-2.826 1.148-3.955.254-1.337-1.06-1.47-3.106-2.682-4.306a3.22 3.22 0 00-2.888-.843 3.22 3.22 0 00-2.286 1.957c-.549 1.428.034 3.11 1.11 4.196 1.078 1.088 2.562 1.672 4.044 2.053 3.218.827 6.648.819 9.862-.024 1.428-.374 2.84-.924 3.98-1.861 1.14-.937 1.987-2.306 2.046-3.78.076-1.907-1.307-3.772-3.153-4.253-.36-.094-.832-.263-.797-.633.017-.176.156-.312.283-.435 2.65-2.572 3.464-6.85 1.946-10.216-.186-.415-.41-.868-.278-1.303.069-.224.209-.39.387-.525M224.44 49.19c-.243.873-.57 1.751-1.166 2.387-.058.061-.118.119-.18.174-.706.618-1.668.623-2.38.013a2.515 2.515 0 01-.181-.172c-.604-.63-.94-1.504-1.193-2.374a17.96 17.96 0 01-.087-9.593c.392-1.448 1.384-3.02 2.568-3.047 1.185.014 2.194 1.575 2.602 3.02.876 3.1.881 6.49.017 9.592m4.117-14.153c-2.495-1.618-5.33-1.852-8.203-1.586-2.028.188-4.039.83-5.697 2.03-3.624 2.621-5.35 8.013-4.063 12.299 1.26 4.197 4.74 6.686 8.854 7.42 4.298.766 9.28-.46 12.037-4.093 1.396-1.84 2.096-4.108 2.075-6.419-.035-3.85-1.765-7.55-5.003-9.65M115.463 50.419c-.498.717-1.274 1.086-2.372 1.127h-.065c-.687 0-1.267-.417-1.6-1.155-.475-1.048-.39-2.137.267-3.426a5.784 5.784 0 011.222-1.597 3.803 3.803 0 011.74-.94c.303-.073.641-.117.955-.076l.126.017c.355.044.355.551.355.704.002.585.06 2.41.087 3.087.032.781-.202 1.52-.715 2.259m9.294 1.873a3.224 3.224 0 01-.417-.37c-.962-1.072-.636-3.549-.688-4.858-.078-1.9-.18-3.8-.306-5.698-.061-.921-.13-1.854-.425-2.73-.75-2.228-2.863-3.757-5.085-4.527-3.022-1.046-6.426-.922-9.376.312-.97.406-1.908.94-2.607 1.725-.932 1.047-1.394 2.595-.628 3.914.155.268.365.506.615.69 1.266.932 2.663.287 3.571-.65.666-.685 1.144-1.528 1.748-2.268.604-.74 1.398-1.404 2.347-1.516 1.529-.181 2.335 1.29 2.468 2.601.07.7.045 1.416.022 2.108-.008.205-.015.41-.02.614-.004.203-.064.344-.177.419-.112.074-.264.075-.451.002-.44-.171-.892-.234-1.371-.3-.177-.024-.355-.049-.531-.079-2.83-.485-6.03.704-7.833 2.937-1.612 1.995-2.074 4.938-.9 7.219.837 1.628 2.43 2.817 4.197 3.292 2.486.666 5.516-.047 7.586-1.542.213-.154.35-.357.468-.357.145 0 .265.12.468.377a4.27 4.27 0 001.985 1.414 6.943 6.943 0 003.187.29c.629-.087 1.4-.217 1.996-.562.906-.52.99-1.803.168-2.448a.16.16 0 00-.01-.009M184.47 43.888a.597.597 0 01-.23.054.321.321 0 01-.17-.046c-.103-.062-.162-.179-.174-.347 0 0-1.292-5.157 1.384-7.055.597-.424 1.395-.342 2.041-.022.22.11.432.31.647.613.43.605.59 1.327.69 1.954.137.855-.143 1.706-.787 2.397-.652.7-1.431 1.488-2.424 1.992-.36.183-.68.334-.977.46m11.006 3.665c-.235-.145-.556-.168-.954-.067a2.988 2.988 0 00-1.54.94c-.636.713-1.377 1.13-2.2 1.24-1.372.18-2.677-.006-3.878-.553a4.302 4.302 0 01-1.051-.706c-.142-.126-.236-.239-.235-.377.002-.158.13-.28.287-.41.722-.612 1.513-1.13 2.26-1.599a101.43 101.43 0 002.881-1.9c.524-.355 1.05-.71 1.578-1.06.82-.542 1.472-1.233 2.003-1.838.575-.656.834-1.357.797-2.175a2.625 2.625 0 00-.138-.714c-1.685-4.619-7.921-5.99-12.142-4.197-4.175 1.774-6.858 6.342-6.71 10.831.01.326.024.733.062 1.14.354 3.888 3.015 7.364 6.715 8.704 4.609 1.668 11.085-.366 12.708-5.325.114-.348.142-.736.076-1.038-.097-.442-.272-.743-.519-.896" fill="currentColor"/></g></svg>